<svg xmlns="http://www.w3.org/2000/svg" version="1.1" xmlns:xlink="http://www.w3.org/1999/xlink" xmlns:svgjs="http://svgjs.dev/svgjs" width="1440" height="560" preserveAspectRatio="none" viewBox="0 0 1440 560"><g mask="url(&quot;#SvgjsMask1012&quot;)" fill="none"><rect width="1440" height="560" x="0" y="0" fill="rgba(108, 20, 20, 0.996078431372549)"></rect><path d="M1512 560L0 560 L0 337.82Q40.9 306.72, 72 347.61Q117.95 321.56, 144 367.51Q169.66 273.17, 264 298.84Q317.07 231.91, 384 284.98Q462.19 243.17, 504 321.35Q582.61 279.96, 624 358.56Q646 260.56, 744 282.57Q790.88 257.44, 816 304.32Q846.4 262.72, 888 293.12Q979.97 265.09, 1008 357.05Q1026.11 303.16, 1080 321.27Q1147.76 269.03, 1200 336.8Q1238.52 255.32, 1320 293.84Q1393.56 247.39, 1440 320.95Q1481.86 290.81, 1512 332.67z" fill="rgba(130, 37, 37, 0.996078431372549)"></path><path d="M1464 560L0 560 L0 366.9Q46.03 340.93, 72 386.96Q125.86 368.82, 144 422.68Q151.91 358.59, 216 366.5Q268.15 298.65, 336 350.8Q428.99 323.79, 456 416.78Q501.01 389.79, 528 434.8Q547.47 334.27, 648 353.74Q714.15 299.89, 768 366.05Q835.93 313.99, 888 381.92Q929.51 351.43, 960 392.94Q975.21 336.15, 1032 351.36Q1103.8 303.16, 1152 374.96Q1230.38 333.33, 1272 411.71Q1302.86 370.56, 1344 401.42Q1388.18 325.61, 1464 369.79z" fill="rgba(188, 40, 40, 0.996078431372549)"></path><path d="M1464 560L0 560 L0 505.66Q1.03 434.69, 72 435.72Q125.24 368.96, 192 422.2Q243.3 401.5, 264 452.8Q315.56 432.36, 336 483.92Q367.77 395.69, 456 427.46Q507.28 406.74, 528 458.01Q571.64 429.65, 600 473.3Q642.42 443.72, 672 486.14Q675.56 417.69, 744 421.25Q812.02 369.27, 864 437.29Q916.72 418.01, 936 470.74Q1019.3 434.04, 1056 517.33Q1056.73 446.07, 1128 446.8Q1150.71 397.51, 1200 420.22Q1283.31 383.53, 1320 466.84Q1362.87 437.7, 1392 480.57Q1409.56 426.13, 1464 443.68z" fill="rgba(230, 18, 18, 0.996078431372549)"></path><path d="M1464 560L0 560 L0 518.41Q78.47 476.88, 120 555.35Q170.24 533.59, 192 583.83Q208.4 480.24, 312 496.64Q353.91 466.55, 384 508.46Q426.74 479.2, 456 521.94Q514.46 508.4, 528 566.86Q575.79 494.65, 648 542.44Q681.88 456.32, 768 490.2Q817.58 467.78, 840 517.36Q895.42 500.78, 912 556.2Q942.88 515.09, 984 545.97Q1060.46 502.43, 1104 578.9Q1111.43 514.33, 1176 521.75Q1202.11 475.86, 1248 501.96Q1278.65 460.61, 1320 491.26Q1373.03 472.28, 1392 525.31Q1440.06 501.37, 1464 549.42z" fill="white"></path></g><defs><mask id="SvgjsMask1012"><rect width="1440" height="560" fill="#ffffff"></rect></mask></defs></svg>