<svg xmlns="http://www.w3.org/2000/svg" version="1.1" xmlns:xlink="http://www.w3.org/1999/xlink" xmlns:svgjs="http://svgjs.dev/svgjs" viewBox="0 0 1422 800"><g shape-rendering="crispEdges"><g><use xlink:href="#SvgjsSymbol1003" x="375" y="37.5" fill="hsl(0, 100%, 51%)"></use><use xlink:href="#SvgjsSymbol1004" x="375" y="37.5" fill="#ff5b39"></use><use xlink:href="#SvgjsSymbol1005" x="375" y="37.5" fill="#c20000"></use></g><g><use xlink:href="#SvgjsSymbol1003" x="337.5" y="93.75" fill="hsl(0, 100%, 51%)"></use><use xlink:href="#SvgjsSymbol1004" x="337.5" y="93.75" fill="#ff5b39"></use><use xlink:href="#SvgjsSymbol1005" x="337.5" y="93.75" fill="#c20000"></use></g><g><use xlink:href="#SvgjsSymbol1003" x="412.5" y="93.75" fill="hsl(0, 100%, 51%)"></use><use xlink:href="#SvgjsSymbol1004" x="412.5" y="93.75" fill="#ff5b39"></use><use xlink:href="#SvgjsSymbol1005" x="412.5" y="93.75" fill="#c20000"></use></g><g><use xlink:href="#SvgjsSymbol1003" x="375" y="150" fill="hsl(0, 100%, 51%)"></use><use xlink:href="#SvgjsSymbol1004" x="375" y="150" fill="#ff5b39"></use><use xlink:href="#SvgjsSymbol1005" x="375" y="150" fill="#c20000"></use></g><g><use xlink:href="#SvgjsSymbol1003" x="300" y="150" fill="hsl(0, 100%, 51%)"></use><use xlink:href="#SvgjsSymbol1004" x="300" y="150" fill="#ff5b39"></use><use xlink:href="#SvgjsSymbol1005" x="300" y="150" fill="#c20000"></use></g><g><use xlink:href="#SvgjsSymbol1003" x="450" y="150" fill="hsl(0, 100%, 51%)"></use><use xlink:href="#SvgjsSymbol1004" x="450" y="150" fill="#ff5b39"></use><use xlink:href="#SvgjsSymbol1005" x="450" y="150" fill="#c20000"></use></g><g><use xlink:href="#SvgjsSymbol1009" x="312.5" y="187.5" fill="hsl(0, 100%, 51%)"></use><use xlink:href="#SvgjsSymbol1010" x="312.5" y="187.5" fill="#ff5b39"></use><use xlink:href="#SvgjsSymbol1011" x="312.5" y="187.5" fill="#c20000"></use></g><g><use xlink:href="#SvgjsSymbol1009" x="375" y="187.5" fill="hsl(0, 100%, 51%)"></use><use xlink:href="#SvgjsSymbol1010" x="375" y="187.5" fill="#ff5b39"></use><use xlink:href="#SvgjsSymbol1011" x="375" y="187.5" fill="#c20000"></use></g><g><use xlink:href="#SvgjsSymbol1009" x="218.75" y="156.25" fill="hsl(0, 100%, 51%)"></use><use xlink:href="#SvgjsSymbol1010" x="218.75" y="156.25" fill="#ff5b39"></use><use xlink:href="#SvgjsSymbol1011" x="218.75" y="156.25" fill="#c20000"></use></g><g><use xlink:href="#SvgjsSymbol1009" x="500" y="187.5" fill="hsl(0, 100%, 51%)"></use><use xlink:href="#SvgjsSymbol1010" x="500" y="187.5" fill="#ff5b39"></use><use xlink:href="#SvgjsSymbol1011" x="500" y="187.5" fill="#c20000"></use></g><g><use xlink:href="#SvgjsSymbol1009" x="437.5" y="281.25" fill="hsl(0, 100%, 51%)"></use><use xlink:href="#SvgjsSymbol1010" x="437.5" y="281.25" fill="#ff5b39"></use><use xlink:href="#SvgjsSymbol1011" x="437.5" y="281.25" fill="#c20000"></use></g><g><use xlink:href="#SvgjsSymbol1009" x="343.75" y="281.25" fill="hsl(0, 100%, 51%)"></use><use xlink:href="#SvgjsSymbol1010" x="343.75" y="281.25" fill="#ff5b39"></use><use xlink:href="#SvgjsSymbol1011" x="343.75" y="281.25" fill="#c20000"></use></g><g><use xlink:href="#SvgjsSymbol1009" x="281.25" y="218.75" fill="hsl(0, 100%, 51%)"></use><use xlink:href="#SvgjsSymbol1010" x="281.25" y="218.75" fill="#ff5b39"></use><use xlink:href="#SvgjsSymbol1011" x="281.25" y="218.75" fill="#c20000"></use></g><g><use xlink:href="#SvgjsSymbol1009" x="218.75" y="250" fill="hsl(0, 100%, 51%)"></use><use xlink:href="#SvgjsSymbol1010" x="218.75" y="250" fill="#ff5b39"></use><use xlink:href="#SvgjsSymbol1011" x="218.75" y="250" fill="#c20000"></use></g><g><use xlink:href="#SvgjsSymbol1009" x="250" y="343.75" fill="hsl(0, 100%, 51%)"></use><use xlink:href="#SvgjsSymbol1010" x="250" y="343.75" fill="#ff5b39"></use><use xlink:href="#SvgjsSymbol1011" x="250" y="343.75" fill="#c20000"></use></g><g><use xlink:href="#SvgjsSymbol1009" x="312.5" y="281.25" fill="hsl(0, 100%, 51%)"></use><use xlink:href="#SvgjsSymbol1010" x="312.5" y="281.25" fill="#ff5b39"></use><use xlink:href="#SvgjsSymbol1011" x="312.5" y="281.25" fill="#c20000"></use></g><g><use xlink:href="#SvgjsSymbol1009" x="406.25" y="375" fill="hsl(0, 100%, 51%)"></use><use xlink:href="#SvgjsSymbol1010" x="406.25" y="375" fill="#ff5b39"></use><use xlink:href="#SvgjsSymbol1011" x="406.25" y="375" fill="#c20000"></use></g><g><use xlink:href="#SvgjsSymbol1009" x="312.5" y="375" fill="hsl(0, 100%, 51%)"></use><use xlink:href="#SvgjsSymbol1010" x="312.5" y="375" fill="#ff5b39"></use><use xlink:href="#SvgjsSymbol1011" x="312.5" y="375" fill="#c20000"></use></g><g><use xlink:href="#SvgjsSymbol1009" x="500" y="343.75" fill="hsl(0, 100%, 51%)"></use><use xlink:href="#SvgjsSymbol1010" x="500" y="343.75" fill="#ff5b39"></use><use xlink:href="#SvgjsSymbol1011" x="500" y="343.75" fill="#c20000"></use></g><g><use xlink:href="#SvgjsSymbol1009" x="531.25" y="281.25" fill="hsl(0, 100%, 51%)"></use><use xlink:href="#SvgjsSymbol1010" x="531.25" y="281.25" fill="#ff5b39"></use><use xlink:href="#SvgjsSymbol1011" x="531.25" y="281.25" fill="#c20000"></use></g><g><use xlink:href="#SvgjsSymbol1009" x="250" y="375" fill="hsl(0, 100%, 51%)"></use><use xlink:href="#SvgjsSymbol1010" x="250" y="375" fill="#ff5b39"></use><use xlink:href="#SvgjsSymbol1011" x="250" y="375" fill="#c20000"></use></g><g><use xlink:href="#SvgjsSymbol1009" x="593.75" y="250" fill="hsl(26, 92%, 50%)"></use><use xlink:href="#SvgjsSymbol1010" x="593.75" y="250" fill="#ffa144"></use><use xlink:href="#SvgjsSymbol1011" x="593.75" y="250" fill="#bb4000"></use></g><g><use xlink:href="#SvgjsSymbol1009" x="562.5" y="375" fill="hsl(26, 92%, 50%)"></use><use xlink:href="#SvgjsSymbol1010" x="562.5" y="375" fill="#ffa144"></use><use xlink:href="#SvgjsSymbol1011" x="562.5" y="375" fill="#bb4000"></use></g><g><use xlink:href="#SvgjsSymbol1009" x="343.75" y="437.5" fill="hsl(26, 92%, 50%)"></use><use xlink:href="#SvgjsSymbol1010" x="343.75" y="437.5" fill="#ffa144"></use><use xlink:href="#SvgjsSymbol1011" x="343.75" y="437.5" fill="#bb4000"></use></g><g><use xlink:href="#SvgjsSymbol1009" x="500" y="125" fill="hsl(26, 92%, 50%)"></use><use xlink:href="#SvgjsSymbol1010" x="500" y="125" fill="#ffa144"></use><use xlink:href="#SvgjsSymbol1011" x="500" y="125" fill="#bb4000"></use></g><g><use xlink:href="#SvgjsSymbol1009" x="125" y="312.5" fill="hsl(26, 92%, 50%)"></use><use xlink:href="#SvgjsSymbol1010" x="125" y="312.5" fill="#ffa144"></use><use xlink:href="#SvgjsSymbol1011" x="125" y="312.5" fill="#bb4000"></use></g><g><use xlink:href="#SvgjsSymbol1009" x="218.75" y="281.25" fill="hsl(26, 92%, 50%)"></use><use xlink:href="#SvgjsSymbol1010" x="218.75" y="281.25" fill="#ffa144"></use><use xlink:href="#SvgjsSymbol1011" x="218.75" y="281.25" fill="#bb4000"></use></g><g><use xlink:href="#SvgjsSymbol1009" x="125" y="218.75" fill="hsl(26, 92%, 50%)"></use><use xlink:href="#SvgjsSymbol1010" x="125" y="218.75" fill="#ffa144"></use><use xlink:href="#SvgjsSymbol1011" x="125" y="218.75" fill="#bb4000"></use></g><g><use xlink:href="#SvgjsSymbol1009" x="125" y="281.25" fill="hsl(26, 92%, 50%)"></use><use xlink:href="#SvgjsSymbol1010" x="125" y="281.25" fill="#ffa144"></use><use xlink:href="#SvgjsSymbol1011" x="125" y="281.25" fill="#bb4000"></use></g><g><use xlink:href="#SvgjsSymbol1009" x="187.5" y="156.25" fill="hsl(26, 92%, 50%)"></use><use xlink:href="#SvgjsSymbol1010" x="187.5" y="156.25" fill="#ffa144"></use><use xlink:href="#SvgjsSymbol1011" x="187.5" y="156.25" fill="#bb4000"></use></g><g><use xlink:href="#SvgjsSymbol1015" x="450" y="318.75" fill="hsl(26, 92%, 50%)"></use><use xlink:href="#SvgjsSymbol1016" x="450" y="318.75" fill="#ffa144"></use><use xlink:href="#SvgjsSymbol1017" x="450" y="318.75" fill="#bb4000"></use></g><g><use xlink:href="#SvgjsSymbol1015" x="412.5" y="243.75" fill="hsl(26, 92%, 50%)"></use><use xlink:href="#SvgjsSymbol1016" x="412.5" y="243.75" fill="#ffa144"></use><use xlink:href="#SvgjsSymbol1017" x="412.5" y="243.75" fill="#bb4000"></use></g><g><use xlink:href="#SvgjsSymbol1015" x="262.5" y="93.75" fill="hsl(26, 92%, 50%)"></use><use xlink:href="#SvgjsSymbol1016" x="262.5" y="93.75" fill="#ffa144"></use><use xlink:href="#SvgjsSymbol1017" x="262.5" y="93.75" fill="#bb4000"></use></g><g><use xlink:href="#SvgjsSymbol1015" x="618.75" y="337.5" fill="hsl(26, 92%, 50%)"></use><use xlink:href="#SvgjsSymbol1016" x="618.75" y="337.5" fill="#ffa144"></use><use xlink:href="#SvgjsSymbol1017" x="618.75" y="337.5" fill="#bb4000"></use></g><g><use xlink:href="#SvgjsSymbol1015" x="206.25" y="393.75" fill="hsl(26, 92%, 50%)"></use><use xlink:href="#SvgjsSymbol1016" x="206.25" y="393.75" fill="#ffa144"></use><use xlink:href="#SvgjsSymbol1017" x="206.25" y="393.75" fill="#bb4000"></use></g><g><use xlink:href="#SvgjsSymbol1015" x="468.75" y="468.75" fill="hsl(26, 92%, 50%)"></use><use xlink:href="#SvgjsSymbol1016" x="468.75" y="468.75" fill="#ffa144"></use><use xlink:href="#SvgjsSymbol1017" x="468.75" y="468.75" fill="#bb4000"></use></g><g><use xlink:href="#SvgjsSymbol1015" x="506.25" y="450" fill="hsl(26, 92%, 50%)"></use><use xlink:href="#SvgjsSymbol1016" x="506.25" y="450" fill="#ffa144"></use><use xlink:href="#SvgjsSymbol1017" x="506.25" y="450" fill="#bb4000"></use></g><g><use xlink:href="#SvgjsSymbol1015" x="300" y="468.75" fill="hsl(55, 94%, 54%)"></use><use xlink:href="#SvgjsSymbol1016" x="300" y="468.75" fill="#ffff5d"></use><use xlink:href="#SvgjsSymbol1017" x="300" y="468.75" fill="#c1b400"></use></g><g><use xlink:href="#SvgjsSymbol1015" x="431.25" y="506.25" fill="hsl(55, 94%, 54%)"></use><use xlink:href="#SvgjsSymbol1016" x="431.25" y="506.25" fill="#ffff5d"></use><use xlink:href="#SvgjsSymbol1017" x="431.25" y="506.25" fill="#c1b400"></use></g><g><use xlink:href="#SvgjsSymbol1015" x="543.75" y="468.75" fill="hsl(55, 94%, 54%)"></use><use xlink:href="#SvgjsSymbol1016" x="543.75" y="468.75" fill="#ffff5d"></use><use xlink:href="#SvgjsSymbol1017" x="543.75" y="468.75" fill="#c1b400"></use></g><g><use xlink:href="#SvgjsSymbol1015" x="225" y="468.75" fill="hsl(55, 94%, 54%)"></use><use xlink:href="#SvgjsSymbol1016" x="225" y="468.75" fill="#ffff5d"></use><use xlink:href="#SvgjsSymbol1017" x="225" y="468.75" fill="#c1b400"></use></g><g><use xlink:href="#SvgjsSymbol1015" x="187.5" y="337.5" fill="hsl(55, 94%, 54%)"></use><use xlink:href="#SvgjsSymbol1016" x="187.5" y="337.5" fill="#ffff5d"></use><use xlink:href="#SvgjsSymbol1017" x="187.5" y="337.5" fill="#c1b400"></use></g><g><use xlink:href="#SvgjsSymbol1015" x="600" y="225" fill="hsl(55, 94%, 54%)"></use><use xlink:href="#SvgjsSymbol1016" x="600" y="225" fill="#ffff5d"></use><use xlink:href="#SvgjsSymbol1017" x="600" y="225" fill="#c1b400"></use></g><g><use xlink:href="#SvgjsSymbol1015" x="187.5" y="225" fill="hsl(55, 94%, 54%)"></use><use xlink:href="#SvgjsSymbol1016" x="187.5" y="225" fill="#ffff5d"></use><use xlink:href="#SvgjsSymbol1017" x="187.5" y="225" fill="#c1b400"></use></g><g><use xlink:href="#SvgjsSymbol1015" x="262.5" y="112.5" fill="hsl(55, 94%, 54%)"></use><use xlink:href="#SvgjsSymbol1016" x="262.5" y="112.5" fill="#ffff5d"></use><use xlink:href="#SvgjsSymbol1017" x="262.5" y="112.5" fill="#c1b400"></use></g><g><use xlink:href="#SvgjsSymbol1015" x="487.5" y="93.75" fill="hsl(55, 94%, 54%)"></use><use xlink:href="#SvgjsSymbol1016" x="487.5" y="93.75" fill="#ffff5d"></use><use xlink:href="#SvgjsSymbol1017" x="487.5" y="93.75" fill="#c1b400"></use></g><g><use xlink:href="#SvgjsSymbol1018" x="500" y="525" fill="hsl(55, 94%, 54%)"></use><use xlink:href="#SvgjsSymbol1019" x="500" y="525" fill="#ffff5d"></use><use xlink:href="#SvgjsSymbol1020" x="500" y="525" fill="#c1b400"></use></g><g><use xlink:href="#SvgjsSymbol1018" x="475" y="500" fill="hsl(55, 94%, 54%)"></use><use xlink:href="#SvgjsSymbol1019" x="475" y="500" fill="#ffff5d"></use><use xlink:href="#SvgjsSymbol1020" x="475" y="500" fill="#c1b400"></use></g><g><use xlink:href="#SvgjsSymbol1018" x="350" y="525" fill="hsl(55, 94%, 54%)"></use><use xlink:href="#SvgjsSymbol1019" x="350" y="525" fill="#ffff5d"></use><use xlink:href="#SvgjsSymbol1020" x="350" y="525" fill="#c1b400"></use></g><g><use xlink:href="#SvgjsSymbol1018" x="200" y="400" fill="hsl(55, 94%, 54%)"></use><use xlink:href="#SvgjsSymbol1019" x="200" y="400" fill="#ffff5d"></use><use xlink:href="#SvgjsSymbol1020" x="200" y="400" fill="#c1b400"></use></g><g><use xlink:href="#SvgjsSymbol1018" x="50" y="325" fill="hsl(55, 94%, 54%)"></use><use xlink:href="#SvgjsSymbol1019" x="50" y="325" fill="#ffff5d"></use><use xlink:href="#SvgjsSymbol1020" x="50" y="325" fill="#c1b400"></use></g><g><use xlink:href="#SvgjsSymbol1018" x="125" y="400" fill="hsl(55, 94%, 54%)"></use><use xlink:href="#SvgjsSymbol1019" x="125" y="400" fill="#ffff5d"></use><use xlink:href="#SvgjsSymbol1020" x="125" y="400" fill="#c1b400"></use></g><g><use xlink:href="#SvgjsSymbol1018" x="650" y="450" fill="hsl(55, 94%, 54%)"></use><use xlink:href="#SvgjsSymbol1019" x="650" y="450" fill="#ffff5d"></use><use xlink:href="#SvgjsSymbol1020" x="650" y="450" fill="#c1b400"></use></g><g><use xlink:href="#SvgjsSymbol1018" x="675" y="200" fill="hsl(55, 94%, 54%)"></use><use xlink:href="#SvgjsSymbol1019" x="675" y="200" fill="#ffff5d"></use><use xlink:href="#SvgjsSymbol1020" x="675" y="200" fill="#c1b400"></use></g><g><use xlink:href="#SvgjsSymbol1018" x="625" y="150" fill="hsl(55, 94%, 54%)"></use><use xlink:href="#SvgjsSymbol1019" x="625" y="150" fill="#ffff5d"></use><use xlink:href="#SvgjsSymbol1020" x="625" y="150" fill="#c1b400"></use></g><g><use xlink:href="#SvgjsSymbol1024" x="0" y="187.5" fill="hsl(55, 94%, 54%)"></use><use xlink:href="#SvgjsSymbol1025" x="0" y="187.5" fill="#ffff5d"></use><use xlink:href="#SvgjsSymbol1026" x="0" y="187.5" fill="#c1b400"></use></g><g><use xlink:href="#SvgjsSymbol1024" x="675" y="337.5" fill="hsl(55, 94%, 54%)"></use><use xlink:href="#SvgjsSymbol1025" x="675" y="337.5" fill="#ffff5d"></use><use xlink:href="#SvgjsSymbol1026" x="675" y="337.5" fill="#c1b400"></use></g><g><use xlink:href="#SvgjsSymbol1024" x="637.5" y="262.5" fill="hsl(55, 94%, 54%)"></use><use xlink:href="#SvgjsSymbol1025" x="637.5" y="262.5" fill="#ffff5d"></use><use xlink:href="#SvgjsSymbol1026" x="637.5" y="262.5" fill="#c1b400"></use></g><g><use xlink:href="#SvgjsSymbol1024" x="262.5" y="487.5" fill="hsl(55, 94%, 54%)"></use><use xlink:href="#SvgjsSymbol1025" x="262.5" y="487.5" fill="#ffff5d"></use><use xlink:href="#SvgjsSymbol1026" x="262.5" y="487.5" fill="#c1b400"></use></g><g><use xlink:href="#SvgjsSymbol1024" x="562.5" y="487.5" fill="hsl(55, 94%, 54%)"></use><use xlink:href="#SvgjsSymbol1025" x="562.5" y="487.5" fill="#ffff5d"></use><use xlink:href="#SvgjsSymbol1026" x="562.5" y="487.5" fill="#c1b400"></use></g><g><use xlink:href="#SvgjsSymbol1024" x="37.5" y="300" fill="hsl(55, 94%, 54%)"></use><use xlink:href="#SvgjsSymbol1025" x="37.5" y="300" fill="#ffff5d"></use><use xlink:href="#SvgjsSymbol1026" x="37.5" y="300" fill="#c1b400"></use></g><g><use xlink:href="#SvgjsSymbol1024" x="150" y="450" fill="hsl(55, 94%, 54%)"></use><use xlink:href="#SvgjsSymbol1025" x="150" y="450" fill="#ffff5d"></use><use xlink:href="#SvgjsSymbol1026" x="150" y="450" fill="#c1b400"></use></g><g><use xlink:href="#SvgjsSymbol1024" x="112.5" y="150" fill="hsl(55, 94%, 54%)"></use><use xlink:href="#SvgjsSymbol1025" x="112.5" y="150" fill="#ffff5d"></use><use xlink:href="#SvgjsSymbol1026" x="112.5" y="150" fill="#c1b400"></use></g></g><symbol id="SvgjsSymbol1000"><polygon points="0,12.5 25,0 50,12.5 25,25"></polygon></symbol><symbol id="SvgjsSymbol1001"><polygon points="0,12.5 25,25 25,50 0,37.5"></polygon></symbol><symbol id="SvgjsSymbol1002"><polygon points="25,25 50,12.5 50,37.5 25,50"></polygon></symbol><g></g><symbol id="SvgjsSymbol1003"><polygon points="0,18.75 37.5,0 75,18.75 37.5,37.5"></polygon></symbol><symbol id="SvgjsSymbol1004"><polygon points="0,18.75 37.5,37.5 37.5,75 0,56.25"></polygon></symbol><symbol id="SvgjsSymbol1005"><polygon points="37.5,37.5 75,18.75 75,56.25 37.5,75"></polygon></symbol><symbol id="SvgjsSymbol1006"><polygon points="0,25 50,0 100,25 50,50"></polygon></symbol><symbol id="SvgjsSymbol1007"><polygon points="0,25 50,50 50,100 0,75"></polygon></symbol><symbol id="SvgjsSymbol1008"><polygon points="50,50 100,25 100,75 50,100"></polygon></symbol><symbol id="SvgjsSymbol1009"><polygon points="0,31.25 62.5,0 125,31.25 62.5,62.5"></polygon></symbol><symbol id="SvgjsSymbol1010"><polygon points="0,31.25 62.5,62.5 62.5,125 0,93.75"></polygon></symbol><symbol id="SvgjsSymbol1011"><polygon points="62.5,62.5 125,31.25 125,93.75 62.5,125"></polygon></symbol><symbol id="SvgjsSymbol1012"><polygon points="0,25 50,0 100,25 50,50"></polygon></symbol><symbol id="SvgjsSymbol1013"><polygon points="0,25 50,50 50,100 0,75"></polygon></symbol><symbol id="SvgjsSymbol1014"><polygon points="50,50 100,25 100,75 50,100"></polygon></symbol><symbol id="SvgjsSymbol1015"><polygon points="0,18.75 37.5,0 75,18.75 37.5,37.5"></polygon></symbol><symbol id="SvgjsSymbol1016"><polygon points="0,18.75 37.5,37.5 37.5,75 0,56.25"></polygon></symbol><symbol id="SvgjsSymbol1017"><polygon points="37.5,37.5 75,18.75 75,56.25 37.5,75"></polygon></symbol><symbol id="SvgjsSymbol1018"><polygon points="0,25 50,0 100,25 50,50"></polygon></symbol><symbol id="SvgjsSymbol1019"><polygon points="0,25 50,50 50,100 0,75"></polygon></symbol><symbol id="SvgjsSymbol1020"><polygon points="50,50 100,25 100,75 50,100"></polygon></symbol><symbol id="SvgjsSymbol1021"><polygon points="0,31.25 62.5,0 125,31.25 62.5,62.5"></polygon></symbol><symbol id="SvgjsSymbol1022"><polygon points="0,31.25 62.5,62.5 62.5,125 0,93.75"></polygon></symbol><symbol id="SvgjsSymbol1023"><polygon points="62.5,62.5 125,31.25 125,93.75 62.5,125"></polygon></symbol><symbol id="SvgjsSymbol1024"><polygon points="0,37.5 75,0 150,37.5 75,75"></polygon></symbol><symbol id="SvgjsSymbol1025"><polygon points="0,37.5 75,75 75,150 0,112.5"></polygon></symbol><symbol id="SvgjsSymbol1026"><polygon points="75,75 150,37.5 150,112.5 75,150"></polygon></symbol></svg>