<svg xmlns="http://www.w3.org/2000/svg" version="1.1" xmlns:xlink="http://www.w3.org/1999/xlink" xmlns:svgjs="http://svgjs.dev/svgjs" width="1440" height="560" preserveAspectRatio="none" viewBox="0 0 1440 560"><g mask="url(&quot;#SvgjsMask1144&quot;)" fill="none"><rect width="1440" height="560" x="0" y="0" fill="url(&quot;#SvgjsLinearGradient1145&quot;)"></rect><path d="M1440 0L1221.12 0L1440 183.93z" fill="rgba(255, 255, 255, .1)"></path><path d="M1221.12 0L1440 183.93L1440 246.48000000000002L662.9499999999999 0z" fill="rgba(255, 255, 255, .075)"></path><path d="M662.95 0L1440 246.48000000000002L1440 418.01L491.81000000000006 0z" fill="rgba(255, 255, 255, .05)"></path><path d="M491.81000000000006 0L1440 418.01L1440 481.69L391.38000000000005 0z" fill="rgba(255, 255, 255, .025)"></path><path d="M0 560L556.56 560L0 546.5z" fill="rgba(0, 0, 0, .1)"></path><path d="M0 546.5L556.56 560L825.51 560L0 392.64z" fill="rgba(0, 0, 0, .075)"></path><path d="M0 392.64L825.51 560L1207.7 560L0 375.53999999999996z" fill="rgba(0, 0, 0, .05)"></path><path d="M0 375.53999999999996L1207.7 560L1289.23 560L0 330.14z" fill="rgba(0, 0, 0, .025)"></path></g><defs><mask id="SvgjsMask1144"><rect width="1440" height="560" fill="#ffffff"></rect></mask><linearGradient x1="84.72%" y1="-39.29%" x2="15.28%" y2="139.29%" gradientUnits="userSpaceOnUse" id="SvgjsLinearGradient1145"><stop stop-color="#0e2a47" offset="0"></stop><stop stop-color="rgba(158, 0, 0, 1)" offset="1"></stop></linearGradient></defs></svg>